<svg xmlns="http://www.w3.org/2000/svg" viewBox="0 0 900 635" font-family="system-ui, -apple-system, 'Segoe UI', sans-serif">
  <defs>
    <linearGradient id="mbg" x1="0" y1="0" x2="0" y2="1">
      <stop offset="0%" stop-color="#0d1117"/>
      <stop offset="100%" stop-color="#161b22"/>
    </linearGradient>
    <marker id="marr" markerWidth="8" markerHeight="6" refX="7" refY="3" orient="auto" markerUnits="userSpaceOnUse">
      <path d="M0,0.5 L7,3 L0,5.5" fill="#8b949e" stroke="none"/>
    </marker>
    <marker id="marr-teal" markerWidth="8" markerHeight="6" refX="7" refY="3" orient="auto" markerUnits="userSpaceOnUse">
      <path d="M0,0.5 L7,3 L0,5.5" fill="#2a9d8f80" stroke="none"/>
    </marker>
    <marker id="marr-orange" markerWidth="8" markerHeight="6" refX="7" refY="3" orient="auto" markerUnits="userSpaceOnUse">
      <path d="M0,0.5 L7,3 L0,5.5" fill="#f4a26180" stroke="none"/>
    </marker>
    <marker id="marr-blue" markerWidth="8" markerHeight="6" refX="7" refY="3" orient="auto" markerUnits="userSpaceOnUse">
      <path d="M0,0.5 L7,3 L0,5.5" fill="#457b9d80" stroke="none"/>
    </marker>
    <marker id="marr-purple" markerWidth="8" markerHeight="6" refX="7" refY="3" orient="auto" markerUnits="userSpaceOnUse">
      <path d="M0,0.5 L7,3 L0,5.5" fill="#a855f780" stroke="none"/>
    </marker>
  </defs>

  <rect width="900" height="635" rx="12" fill="url(#mbg)"/>

  <text x="450" y="38" text-anchor="middle" fill="#e6edf3" font-size="16" font-weight="600" letter-spacing="0.5">Module Architecture</text>
  <line x1="310" y1="50" x2="590" y2="50" stroke="#30363d" stroke-width="1"/>

  <!-- ═══════════ Public API Layer ═══════════ -->
  <g transform="translate(270, 65)">
    <rect width="360" height="55" rx="10" fill="#e6394618" stroke="#e63946" stroke-width="1.2"/>
    <text x="180" y="20" text-anchor="middle" fill="#e63946" font-size="10" font-weight="700" letter-spacing="1">PUBLIC API</text>
    <text x="90" y="42" text-anchor="middle" fill="#c9d1d9" font-size="11" font-weight="500">generatePalette()</text>
    <text x="270" y="42" text-anchor="middle" fill="#c9d1d9" font-size="11" font-weight="500">createPaletteStepper()</text>
    <text x="180" y="42" text-anchor="middle" fill="#30363d" font-size="11">|</text>
  </g>

  <!-- Arrow API → Orchestrator -->
  <line x1="450" y1="124" x2="450" y2="148" stroke="#8b949e" stroke-width="1.2" marker-end="url(#marr)"/>

  <!-- ═══════════ Orchestrator ═══════════ -->
  <g transform="translate(310, 150)">
    <rect width="280" height="38" rx="8" fill="#f4a26118" stroke="#f4a261" stroke-width="1"/>
    <text x="105" y="24" text-anchor="middle" fill="#f4a261" font-size="11" font-weight="600">facette.ts</text>
    <text x="210" y="24" text-anchor="middle" fill="#8b949e" font-size="9">orchestrator</text>
  </g>

  <!-- Arrows from orchestrator fan out (solid = direct dependency) -->
  <line x1="370" y1="192" x2="105" y2="232" stroke="#8b949e" stroke-width="1" marker-end="url(#marr)"/>
  <line x1="400" y1="192" x2="285" y2="232" stroke="#8b949e" stroke-width="1" marker-end="url(#marr)"/>
  <line x1="450" y1="192" x2="453" y2="232" stroke="#8b949e" stroke-width="1" marker-end="url(#marr)"/>
  <line x1="500" y1="192" x2="613" y2="232" stroke="#8b949e" stroke-width="1" marker-end="url(#marr)"/>
  <line x1="540" y1="192" x2="760" y2="232" stroke="#8b949e" stroke-width="1" marker-end="url(#marr)"/>

  <!-- ═══════════ Row 2: Core transforms ═══════════ -->

  <!-- color-conversion -->
  <g transform="translate(20, 235)">
    <rect width="170" height="50" rx="8" fill="#457b9d18" stroke="#457b9d" stroke-width="1"/>
    <text x="85" y="20" text-anchor="middle" fill="#457b9d" font-size="11" font-weight="600">color-conversion</text>
    <text x="85" y="36" text-anchor="middle" fill="#8b949e" font-size="9">sRGB / OKLab / OKLCh</text>
  </g>

  <!-- space-lift -->
  <g transform="translate(205, 235)">
    <rect width="160" height="50" rx="8" fill="#f4a26118" stroke="#f4a261" stroke-width="1"/>
    <text x="80" y="20" text-anchor="middle" fill="#f4a261" font-size="11" font-weight="600">space-lift</text>
    <text x="80" y="36" text-anchor="middle" fill="#8b949e" font-size="9">radial chroma lift</text>
  </g>

  <!-- dimensionality -->
  <g transform="translate(380, 235)">
    <rect width="145" height="50" rx="8" fill="#2a9d8f18" stroke="#2a9d8f" stroke-width="1"/>
    <text x="73" y="20" text-anchor="middle" fill="#2a9d8f" font-size="11" font-weight="600">dimensionality</text>
    <text x="73" y="36" text-anchor="middle" fill="#8b949e" font-size="9">SVD detection</text>
  </g>

  <!-- convex-hull -->
  <g transform="translate(540, 235)">
    <rect width="145" height="50" rx="8" fill="#a855f718" stroke="#a855f7" stroke-width="1"/>
    <text x="73" y="20" text-anchor="middle" fill="#a855f7" font-size="11" font-weight="600">convex-hull</text>
    <text x="73" y="36" text-anchor="middle" fill="#8b949e" font-size="9">constraint surface</text>
  </g>

  <!-- output -->
  <g transform="translate(700, 235)">
    <rect width="120" height="50" rx="8" fill="#e6394618" stroke="#e63946" stroke-width="1"/>
    <text x="60" y="20" text-anchor="middle" fill="#e63946" font-size="11" font-weight="600">output</text>
    <text x="60" y="36" text-anchor="middle" fill="#8b949e" font-size="9">hex formatting</text>
  </g>

  <!-- dimensionality → svd -->
  <line x1="453" y1="289" x2="453" y2="310" stroke="#8b949e" stroke-width="1" marker-end="url(#marr)"/>
  <g transform="translate(395, 312)">
    <rect width="115" height="35" rx="6" fill="#21262d" stroke="#30363d" stroke-width="0.8"/>
    <text x="58" y="22" text-anchor="middle" fill="#8b949e" font-size="10">svd</text>
  </g>

  <!-- convex-hull → atlas -->
  <line x1="613" y1="289" x2="613" y2="310" stroke="#8b949e" stroke-width="1" marker-end="url(#marr)"/>
  <g transform="translate(555, 312)">
    <rect width="115" height="35" rx="6" fill="#a855f718" stroke="#a855f7" stroke-width="0.8"/>
    <text x="58" y="14" text-anchor="middle" fill="#a855f7" font-size="10">atlas</text>
    <text x="58" y="27" text-anchor="middle" fill="#8b949e" font-size="8">face basis + topology</text>
  </g>

  <!-- ═══════════ Row 3: Particle system ═══════════ -->

  <!-- Orchestrator indirect deps: left-side bus + right-side route -->
  <!-- Left bus: orchestrator → vertical line → branches to seed-classification, initialization, optimization -->
  <polyline points="330,188 330,200 8,200" fill="none" stroke="#8b949e" stroke-width="0.8" stroke-dasharray="4,3"/>
  <!-- Bus vertical trunk (x=8, well clear of seed-classification box at x=20) -->
  <line x1="8" y1="200" x2="8" y2="475" stroke="#8b949e" stroke-width="0.8" stroke-dasharray="4,3"/>
  <!-- Branch: → seed-classification (enters left side at mid-height y=400) -->
  <line x1="8" y1="400" x2="18" y2="400" stroke="#8b949e" stroke-width="0.8" stroke-dasharray="4,3" marker-end="url(#marr)"/>
  <!-- Branch: → initialization (routes below both row-3 boxes, enters from bottom) -->
  <polyline points="8,440 285,440 285,423" fill="none" stroke="#8b949e" stroke-width="0.8" stroke-dasharray="4,3" marker-end="url(#marr)"/>
  <!-- Branch: → optimization engine -->
  <line x1="8" y1="475" x2="203" y2="475" stroke="#8b949e" stroke-width="0.8" stroke-dasharray="4,3" marker-end="url(#marr)"/>
  <!-- Right side: orchestrator → gamut-clipping -->
  <polyline points="560,188 560,200 842,200 842,400 822,400" fill="none" stroke="#8b949e" stroke-width="0.8" stroke-dasharray="4,3" marker-end="url(#marr)"/>

  <!-- seed-classification -->
  <g transform="translate(20, 378)">
    <rect width="170" height="45" rx="8" fill="#2a9d8f18" stroke="#2a9d8f" stroke-width="1"/>
    <text x="85" y="18" text-anchor="middle" fill="#2a9d8f" font-size="11" font-weight="600">seed-classification</text>
    <text x="85" y="33" text-anchor="middle" fill="#8b949e" font-size="9">vertex / boundary / interior</text>
  </g>

  <!-- initialization -->
  <g transform="translate(205, 378)">
    <rect width="160" height="45" rx="8" fill="#2a9d8f18" stroke="#2a9d8f" stroke-width="1"/>
    <text x="80" y="18" text-anchor="middle" fill="#2a9d8f" font-size="11" font-weight="600">initialization</text>
    <text x="80" y="33" text-anchor="middle" fill="#8b949e" font-size="9">greedy particle placement</text>
  </g>

  <!-- gamut-clipping -->
  <g transform="translate(700, 378)">
    <rect width="120" height="45" rx="8" fill="#457b9d18" stroke="#457b9d" stroke-width="1"/>
    <text x="60" y="18" text-anchor="middle" fill="#457b9d" font-size="11" font-weight="600">gamut-clipping</text>
    <text x="60" y="33" text-anchor="middle" fill="#8b949e" font-size="9">sRGB boundary</text>
  </g>

  <!-- ═══════════ Row 4: Optimization engine ═══════════ -->

  <g transform="translate(205, 450)">
    <rect width="480" height="70" rx="10" fill="#a855f710" stroke="#a855f7" stroke-width="1.2"/>
    <text x="240" y="20" text-anchor="middle" fill="#a855f7" font-size="10" font-weight="700" letter-spacing="1">OPTIMIZATION ENGINE</text>

    <!-- Sub-modules -->
    <g transform="translate(15, 30)">
      <rect width="105" height="30" rx="5" fill="#21262d" stroke="#a855f740" stroke-width="0.8"/>
      <text x="53" y="19" text-anchor="middle" fill="#c9d1d9" font-size="9">optimization</text>
    </g>
    <g transform="translate(130, 30)">
      <rect width="105" height="30" rx="5" fill="#21262d" stroke="#a855f740" stroke-width="0.8"/>
      <text x="53" y="19" text-anchor="middle" fill="#c9d1d9" font-size="9">energy</text>
    </g>
    <g transform="translate(245, 30)">
      <rect width="105" height="30" rx="5" fill="#21262d" stroke="#a855f740" stroke-width="0.8"/>
      <text x="53" y="19" text-anchor="middle" fill="#c9d1d9" font-size="9">surface-navigation</text>
    </g>
    <g transform="translate(360, 30)">
      <rect width="105" height="30" rx="5" fill="#21262d" stroke="#a855f740" stroke-width="0.8"/>
      <text x="53" y="19" text-anchor="middle" fill="#c9d1d9" font-size="9">line-segment</text>
    </g>
  </g>

  <!-- Cross-layer dependency arrows (exit from bottom of optimization engine at y=520) -->
  <!-- energy → space-lift: route left of initialization box (x=205), enter space-lift left side -->
  <polyline points="335,520 335,528 197,528 197,260 205,260" fill="none" stroke="#f4a26170" stroke-width="1" stroke-dasharray="3,3" marker-end="url(#marr-orange)"/>
  <!-- energy → gamut-clipping -->
  <polyline points="400,520 400,534 690,534 690,400 700,400" fill="none" stroke="#457b9d70" stroke-width="1" stroke-dasharray="3,3" marker-end="url(#marr-blue)"/>
  <!-- surface-nav → atlas: target bottom-center of atlas box (613, 347) -->
  <polyline points="510,520 510,540 613,540 613,347" fill="none" stroke="#a855f770" stroke-width="1" stroke-dasharray="3,3" marker-end="url(#marr-purple)"/>

  <!-- ═══════════ Shared utilities ═══════════ -->
  <g transform="translate(20, 555)">
    <rect width="170" height="35" rx="6" fill="#21262d80" stroke="#30363d" stroke-width="0.8"/>
    <text x="15" y="22" fill="#8b949e" font-size="9" font-weight="600" letter-spacing="0.5">SHARED</text>
    <g transform="translate(65, 7)">
      <rect width="30" height="22" rx="4" fill="#21262d" stroke="#30363d" stroke-width="0.5"/>
      <text x="15" y="15" text-anchor="middle" fill="#8b949e" font-size="9">math</text>
    </g>
    <g transform="translate(100, 7)">
      <rect width="60" height="22" rx="4" fill="#21262d" stroke="#30363d" stroke-width="0.5"/>
      <text x="30" y="15" text-anchor="middle" fill="#8b949e" font-size="9">barycentric</text>
    </g>
  </g>

  <!-- ═══════════ Legend ═══════════ -->
  <g transform="translate(20, 600)">
    <rect width="860" height="25" rx="5" fill="#161b2280" stroke="#30363d" stroke-width="0.5"/>

    <!-- Color meanings -->
    <rect x="12" y="5" width="12" height="12" rx="2" fill="#e6394618" stroke="#e63946" stroke-width="0.8"/>
    <text x="30" y="15" fill="#8b949e" font-size="8">API / Output</text>

    <rect x="105" y="5" width="12" height="12" rx="2" fill="#f4a26118" stroke="#f4a261" stroke-width="0.8"/>
    <text x="123" y="15" fill="#8b949e" font-size="8">Orchestration / Lift</text>

    <rect x="230" y="5" width="12" height="12" rx="2" fill="#2a9d8f18" stroke="#2a9d8f" stroke-width="0.8"/>
    <text x="248" y="15" fill="#8b949e" font-size="8">Particle system</text>

    <rect x="340" y="5" width="12" height="12" rx="2" fill="#a855f718" stroke="#a855f7" stroke-width="0.8"/>
    <text x="358" y="15" fill="#8b949e" font-size="8">Hull / Optimization</text>

    <rect x="470" y="5" width="12" height="12" rx="2" fill="#457b9d18" stroke="#457b9d" stroke-width="0.8"/>
    <text x="488" y="15" fill="#8b949e" font-size="8">Color space</text>

    <!-- Arrow types -->
    <line x1="575" y1="11" x2="595" y2="11" stroke="#8b949e" stroke-width="1"/>
    <text x="602" y="15" fill="#8b949e" font-size="8">Direct dep.</text>

    <line x1="670" y1="11" x2="690" y2="11" stroke="#8b949e" stroke-width="1" stroke-dasharray="3,3"/>
    <text x="697" y="15" fill="#8b949e" font-size="8">Indirect dep.</text>

    <line x1="775" y1="11" x2="795" y2="11" stroke="#f4a26170" stroke-width="1" stroke-dasharray="3,3"/>
    <text x="802" y="15" fill="#8b949e" font-size="8">Cross-layer</text>
  </g>
</svg>