<svg xmlns="http://www.w3.org/2000/svg" width="800" height="454" viewBox="0 0 800 454"><rect width="800" height="454" fill="#0d1117" rx="12"/><text x="400" y="18" fill="#8b949e" font-family="system-ui, -apple-system, sans-serif" font-size="11" text-anchor="middle" font-weight="500">Generated with Facette</text><text x="16" y="56" fill="#8b949e" font-family="system-ui, -apple-system, sans-serif" font-size="11">Vivid complementary</text><rect x="160" y="34" width="32" height="32" rx="6" fill="#e63946"/><circle cx="176" cy="72" r="2" fill="#8b949e"/><rect x="196" y="34" width="32" height="32" rx="6" fill="#2a9d8f"/><circle cx="212" cy="72" r="2" fill="#8b949e"/><text x="242" y="56" fill="#484f58" font-family="system-ui, sans-serif" font-size="18">&#x2192;</text><rect x="270" y="34" width="32" height="32" rx="6" fill="#8d8d67"/><rect x="306" y="34" width="32" height="32" rx="6" fill="#bd705f"/><rect x="342" y="34" width="32" height="32" rx="6" fill="#cd5e56"/><rect x="378" y="34" width="32" height="32" rx="6" fill="#d94c4d"/><text x="16" y="142" fill="#8b949e" font-family="system-ui, -apple-system, sans-serif" font-size="11">Warm cluster</text><rect x="160" y="120" width="32" height="32" rx="6" fill="#ff6b6b"/><circle cx="176" cy="158" r="2" fill="#8b949e"/><rect x="196" y="120" width="32" height="32" rx="6" fill="#ee5a24"/><circle cx="212" cy="158" r="2" fill="#8b949e"/><rect x="232" y="120" width="32" height="32" rx="6" fill="#f0932b"/><circle cx="248" cy="158" r="2" fill="#8b949e"/><rect x="268" y="120" width="32" height="32" rx="6" fill="#ffbe76"/><circle cx="284" cy="158" r="2" fill="#8b949e"/><text x="314" y="142" fill="#484f58" font-family="system-ui, sans-serif" font-size="18">&#x2192;</text><rect x="342" y="120" width="32" height="32" rx="6" fill="#ffa890"/><rect x="378" y="120" width="32" height="32" rx="6" fill="#ff8374"/><rect x="414" y="120" width="32" height="32" rx="6" fill="#e7751a"/><rect x="450" y="120" width="32" height="32" rx="6" fill="#ffccb1"/><text x="16" y="228" fill="#8b949e" font-family="system-ui, -apple-system, sans-serif" font-size="11">Muted earth tones</text><rect x="160" y="206" width="32" height="32" rx="6" fill="#a09080"/><circle cx="176" cy="244" r="2" fill="#8b949e"/><rect x="196" y="206" width="32" height="32" rx="6" fill="#8e7b6b"/><circle cx="212" cy="244" r="2" fill="#8b949e"/><rect x="232" y="206" width="32" height="32" rx="6" fill="#6b7e6b"/><circle cx="248" cy="244" r="2" fill="#8b949e"/><text x="278" y="228" fill="#484f58" font-family="system-ui, sans-serif" font-size="18">&#x2192;</text><rect x="306" y="206" width="32" height="32" rx="6" fill="#968474"/><rect x="342" y="206" width="32" height="32" rx="6" fill="#636f5c"/><rect x="378" y="206" width="32" height="32" rx="6" fill="#aca894"/><text x="16" y="314" fill="#8b949e" font-family="system-ui, -apple-system, sans-serif" font-size="11">Full spectrum</text><rect x="160" y="292" width="32" height="32" rx="6" fill="#a92323"/><circle cx="176" cy="330" r="2" fill="#8b949e"/><rect x="196" y="292" width="32" height="32" rx="6" fill="#4c85a9"/><circle cx="212" cy="330" r="2" fill="#8b949e"/><rect x="232" y="292" width="32" height="32" rx="6" fill="#1d3557"/><circle cx="248" cy="330" r="2" fill="#8b949e"/><rect x="268" y="292" width="32" height="32" rx="6" fill="#707a00"/><circle cx="284" cy="330" r="2" fill="#8b949e"/><text x="314" y="314" fill="#484f58" font-family="system-ui, sans-serif" font-size="18">&#x2192;</text><rect x="342" y="292" width="32" height="32" rx="6" fill="#305a7d"/><rect x="378" y="292" width="32" height="32" rx="6" fill="#7f2025"/><rect x="414" y="292" width="32" height="32" rx="6" fill="#a75a60"/><rect x="450" y="292" width="32" height="32" rx="6" fill="#a4480d"/><rect x="486" y="292" width="32" height="32" rx="6" fill="#214365"/><rect x="522" y="292" width="32" height="32" rx="6" fill="#407295"/><text x="16" y="400" fill="#8b949e" font-family="system-ui, -apple-system, sans-serif" font-size="11">Vivid rainbow</text><rect x="160" y="378" width="32" height="32" rx="6" fill="#ff2d55"/><circle cx="176" cy="416" r="2" fill="#8b949e"/><rect x="196" y="378" width="32" height="32" rx="6" fill="#ff9500"/><circle cx="212" cy="416" r="2" fill="#8b949e"/><rect x="232" y="378" width="32" height="32" rx="6" fill="#34c759"/><circle cx="248" cy="416" r="2" fill="#8b949e"/><rect x="268" y="378" width="32" height="32" rx="6" fill="#007aff"/><circle cx="284" cy="416" r="2" fill="#8b949e"/><rect x="304" y="378" width="32" height="32" rx="6" fill="#af52de"/><circle cx="320" cy="416" r="2" fill="#8b949e"/><rect x="340" y="378" width="32" height="32" rx="6" fill="#ffcc00"/><circle cx="356" cy="416" r="2" fill="#8b949e"/><text x="386" y="400" fill="#484f58" font-family="system-ui, sans-serif" font-size="18">&#x2192;</text><rect x="414" y="378" width="32" height="32" rx="6" fill="#00a1c9"/><rect x="450" y="378" width="32" height="32" rx="6" fill="#e1348e"/><rect x="486" y="378" width="32" height="32" rx="6" fill="#ff7d75"/></svg>