<svg xmlns="http://www.w3.org/2000/svg" width="800" height="454" viewBox="0 0 800 454"><rect width="800" height="454" fill="#0d1117" rx="12"/><text x="400" y="18" fill="#8b949e" font-family="system-ui, -apple-system, sans-serif" font-size="11" text-anchor="middle" font-weight="500">Generated with Facette</text><text x="16" y="56" fill="#8b949e" font-family="system-ui, -apple-system, sans-serif" font-size="11">Vivid complementary</text><rect x="160" y="34" width="32" height="32" rx="6" fill="#e63946"/><circle cx="176" cy="72" r="2" fill="#8b949e"/><rect x="196" y="34" width="32" height="32" rx="6" fill="#2a9d8f"/><circle cx="212" cy="72" r="2" fill="#8b949e"/><text x="242" y="56" fill="#484f58" font-family="system-ui, sans-serif" font-size="18">&#x2192;</text><rect x="270" y="34" width="32" height="32" rx="6" fill="#70927b"/><rect x="306" y="34" width="32" height="32" rx="6" fill="#a77c68"/><rect x="342" y="34" width="32" height="32" rx="6" fill="#c16a5e"/><rect x="378" y="34" width="32" height="32" rx="6" fill="#d45553"/><text x="16" y="142" fill="#8b949e" font-family="system-ui, -apple-system, sans-serif" font-size="11">Warm cluster</text><rect x="160" y="120" width="32" height="32" rx="6" fill="#ff6b6b"/><circle cx="176" cy="158" r="2" fill="#8b949e"/><rect x="196" y="120" width="32" height="32" rx="6" fill="#ee5a24"/><circle cx="212" cy="158" r="2" fill="#8b949e"/><rect x="232" y="120" width="32" height="32" rx="6" fill="#f0932b"/><circle cx="248" cy="158" r="2" fill="#8b949e"/><rect x="268" y="120" width="32" height="32" rx="6" fill="#ffbe76"/><circle cx="284" cy="158" r="2" fill="#8b949e"/><text x="314" y="142" fill="#484f58" font-family="system-ui, sans-serif" font-size="18">&#x2192;</text><rect x="342" y="120" width="32" height="32" rx="6" fill="#ff9b77"/><rect x="378" y="120" width="32" height="32" rx="6" fill="#f7a650"/><rect x="414" y="120" width="32" height="32" rx="6" fill="#f07827"/><rect x="450" y="120" width="32" height="32" rx="6" fill="#ff8471"/><text x="16" y="228" fill="#8b949e" font-family="system-ui, -apple-system, sans-serif" font-size="11">Muted earth tones</text><rect x="160" y="206" width="32" height="32" rx="6" fill="#a09080"/><circle cx="176" cy="244" r="2" fill="#8b949e"/><rect x="196" y="206" width="32" height="32" rx="6" fill="#8e7b6b"/><circle cx="212" cy="244" r="2" fill="#8b949e"/><rect x="232" y="206" width="32" height="32" rx="6" fill="#6b7e6b"/><circle cx="248" cy="244" r="2" fill="#8b949e"/><text x="278" y="228" fill="#484f58" font-family="system-ui, sans-serif" font-size="18">&#x2192;</text><rect x="306" y="206" width="32" height="32" rx="6" fill="#858774"/><rect x="342" y="206" width="32" height="32" rx="6" fill="#788370"/><rect x="378" y="206" width="32" height="32" rx="6" fill="#948272"/><text x="16" y="314" fill="#8b949e" font-family="system-ui, -apple-system, sans-serif" font-size="11">Full spectrum</text><rect x="160" y="292" width="32" height="32" rx="6" fill="#a92323"/><circle cx="176" cy="330" r="2" fill="#8b949e"/><rect x="196" y="292" width="32" height="32" rx="6" fill="#4c85a9"/><circle cx="212" cy="330" r="2" fill="#8b949e"/><rect x="232" y="292" width="32" height="32" rx="6" fill="#1d3557"/><circle cx="248" cy="330" r="2" fill="#8b949e"/><rect x="268" y="292" width="32" height="32" rx="6" fill="#707a00"/><circle cx="284" cy="330" r="2" fill="#8b949e"/><text x="314" y="314" fill="#484f58" font-family="system-ui, sans-serif" font-size="18">&#x2192;</text><rect x="342" y="292" width="32" height="32" rx="6" fill="#3b698d"/><rect x="378" y="292" width="32" height="32" rx="6" fill="#73333c"/><rect x="414" y="292" width="32" height="32" rx="6" fill="#8e616e"/><rect x="450" y="292" width="32" height="32" rx="6" fill="#4c6034"/><rect x="486" y="292" width="32" height="32" rx="6" fill="#965510"/><rect x="522" y="292" width="32" height="32" rx="6" fill="#2b4e71"/><text x="16" y="400" fill="#8b949e" font-family="system-ui, -apple-system, sans-serif" font-size="11">Vivid rainbow</text><rect x="160" y="378" width="32" height="32" rx="6" fill="#ff2d55"/><circle cx="176" cy="416" r="2" fill="#8b949e"/><rect x="196" y="378" width="32" height="32" rx="6" fill="#ff9500"/><circle cx="212" cy="416" r="2" fill="#8b949e"/><rect x="232" y="378" width="32" height="32" rx="6" fill="#34c759"/><circle cx="248" cy="416" r="2" fill="#8b949e"/><rect x="268" y="378" width="32" height="32" rx="6" fill="#007aff"/><circle cx="284" cy="416" r="2" fill="#8b949e"/><rect x="304" y="378" width="32" height="32" rx="6" fill="#af52de"/><circle cx="320" cy="416" r="2" fill="#8b949e"/><rect x="340" y="378" width="32" height="32" rx="6" fill="#ffcc00"/><circle cx="356" cy="416" r="2" fill="#8b949e"/><text x="386" y="400" fill="#484f58" font-family="system-ui, sans-serif" font-size="18">&#x2192;</text><rect x="414" y="378" width="32" height="32" rx="6" fill="#00aeac"/><rect x="450" y="378" width="32" height="32" rx="6" fill="#d77564"/><rect x="486" y="378" width="32" height="32" rx="6" fill="#b0b39a"/><rect x="522" y="378" width="32" height="32" rx="6" fill="#7e82cc"/><rect x="558" y="378" width="32" height="32" rx="6" fill="#d94ba0"/><rect x="594" y="378" width="32" height="32" rx="6" fill="#aecc3c"/></svg>
